<svg width="111" height="214" viewBox="0 0 111 214" fill="none" xmlns="http://www.w3.org/2000/svg">
<path d="M8.77125 54.599L34.8733 173.774L39.7575 172.704L13.6555 53.5292L8.77125 54.599Z" fill="#F1F1F1"/>
<path d="M14.7814 39.975L46.4462 184.548L51.3304 183.478L19.6656 38.9053L14.7814 39.975Z" fill="#F1F1F1"/>
<path d="M20.1497 22.42L58.6609 198.252L63.5451 197.182L25.0339 21.3503L20.1497 22.42Z" fill="#F1F1F1"/>
<path d="M26.3739 8.77175L70.0199 208.048L74.9041 206.978L31.2581 7.702L26.3739 8.77175Z" fill="#F1F1F1"/>
<path d="M40.0507 5.77641L83.6957 205.053L78.8114 206.123L35.1665 6.84614L40.0507 5.77641Z" fill="#F1F1F1"/>
<path d="M51.4096 15.5727L89.9199 191.405L85.0357 192.475L46.5254 16.6425L51.4096 15.5727Z" fill="#F1F1F1"/>
<path d="M63.6244 29.2768L95.2885 173.85L90.4042 174.92L58.7402 30.3465L63.6244 29.2768Z" fill="#F1F1F1"/>
<path d="M75.1975 40.0508L101.299 159.226L96.4147 160.296L70.3133 41.1205L75.1975 40.0508Z" fill="#F1F1F1"/>
</svg>
