<svg width="233" height="233" viewBox="0 0 233 233" fill="none" xmlns="http://www.w3.org/2000/svg">
<path d="M91.8903 41.3204C95.8403 45.7079 102.599 46.0626 106.987 42.1126C111.374 38.1627 111.729 31.4038 107.779 27.0164C103.829 22.6289 97.07 22.2742 92.6825 26.2242C88.295 30.1741 87.9403 36.933 91.8903 41.3204Z" fill="#FF7314"/>
<path d="M110.962 62.5051C114.912 66.8926 121.671 67.2473 126.059 63.2973C130.446 59.3474 130.801 52.5885 126.851 48.2011C122.901 43.8136 116.142 43.4589 111.755 47.4089C107.367 51.3588 107.012 58.1177 110.962 62.5051Z" fill="#FF7314"/>
<path d="M130.035 83.6898C133.985 88.0773 140.744 88.4319 145.131 84.482C149.519 80.532 149.873 73.7732 145.923 69.3857C141.973 64.9983 135.214 64.6436 130.827 68.5935C126.44 72.5435 126.085 79.3023 130.035 83.6898Z" fill="#FF7314"/>
<path d="M149.107 104.874C153.057 109.262 159.816 109.616 164.203 105.666C168.59 101.716 168.945 94.9576 164.995 90.5701C161.045 86.1826 154.286 85.828 149.899 89.7779C145.511 93.7279 145.157 100.487 149.107 104.874Z" fill="#FF7314"/>
<path d="M168.18 126.059C172.13 130.446 178.888 130.801 183.276 126.851C187.663 122.901 188.018 116.142 184.068 111.755C180.118 107.367 173.359 107.013 168.972 110.963C164.584 114.913 164.23 121.671 168.18 126.059Z" fill="#FF7314"/>
<path d="M187.25 147.244C191.2 151.631 197.959 151.986 202.347 148.036C206.734 144.086 207.089 137.327 203.139 132.939C199.189 128.552 192.43 128.197 188.042 132.147C183.655 136.097 183.3 142.856 187.25 147.244Z" fill="#FF7314"/>
<path d="M49.5213 79.4646C53.4712 83.8521 60.2301 84.2068 64.6175 80.2568C69.005 76.3069 69.3597 69.548 65.4097 65.1606C61.4598 60.7731 54.7009 60.4184 50.3135 64.3684C45.926 68.3183 45.5713 75.0771 49.5213 79.4646Z" fill="#FF7314"/>
<path d="M68.5934 100.649C72.5434 105.037 79.3022 105.391 83.6897 101.441C88.0771 97.4915 88.4318 90.7327 84.4819 86.3452C80.5319 81.9578 73.7731 81.6031 69.3856 85.5531C64.9981 89.503 64.6435 96.2618 68.5934 100.649Z" fill="#FF7314"/>
<path d="M87.6654 121.834C91.6154 126.221 98.3742 126.576 102.762 122.626C107.149 118.676 107.504 111.917 103.554 107.53C99.6039 103.142 92.8451 102.788 88.4576 106.738C84.0702 110.688 83.7155 117.446 87.6654 121.834Z" fill="#FF7314"/>
<path d="M106.738 143.019C110.688 147.406 117.446 147.761 121.834 143.811C126.221 139.861 126.576 133.102 122.626 128.714C118.676 124.327 111.917 123.972 107.53 127.922C103.142 131.872 102.788 138.631 106.738 143.019Z" fill="#FF7314"/>
<path d="M125.81 164.203C129.76 168.591 136.519 168.945 140.906 164.995C145.294 161.045 145.648 154.286 141.698 149.899C137.748 145.511 130.99 145.157 126.602 149.107C122.215 153.057 121.86 159.816 125.81 164.203Z" fill="#FF7314"/>
<path d="M144.882 185.387C148.832 189.775 155.591 190.13 159.978 186.18C164.366 182.23 164.72 175.471 160.77 171.083C156.82 166.696 150.062 166.341 145.674 170.291C141.287 174.241 140.932 181 144.882 185.387Z" fill="#FF7314"/>
<path d="M7.15213 117.609C11.1021 121.996 17.8609 122.351 22.2484 118.401C26.6359 114.451 26.9905 107.692 23.0406 103.305C19.0906 98.9173 12.3318 98.5626 7.94433 102.513C3.55686 106.463 3.20218 113.221 7.15213 117.609Z" fill="#FF7314"/>
<path d="M26.2242 138.793C30.1741 143.181 36.9329 143.535 41.3204 139.586C45.7079 135.636 46.0626 128.877 42.1126 124.489C38.1626 120.102 31.4038 119.747 27.0164 123.697C22.6289 127.647 22.2742 134.406 26.2242 138.793Z" fill="#FF7314"/>
<path d="M45.2963 159.978C49.2463 164.365 56.0051 164.72 60.3926 160.77C64.78 156.82 65.1347 150.061 61.1847 145.674C57.2348 141.286 50.476 140.932 46.0885 144.882C41.701 148.832 41.3464 155.591 45.2963 159.978Z" fill="#FF7314"/>
<path d="M64.3686 181.163C68.3185 185.55 75.0773 185.905 79.4648 181.955C83.8523 178.005 84.207 171.246 80.257 166.859C76.3071 162.471 69.5482 162.117 65.1608 166.067C60.7733 170.017 60.4186 176.775 64.3686 181.163Z" fill="#FF7314"/>
<path d="M83.4406 202.347C87.3905 206.734 94.1494 207.089 98.5368 203.139C102.924 199.189 103.279 192.43 99.329 188.043C95.3791 183.655 88.6203 183.3 84.2328 187.25C79.8453 191.2 79.4906 197.959 83.4406 202.347Z" fill="#FF7314"/>
<path d="M102.513 223.532C106.463 227.919 113.222 228.274 117.609 224.324C121.996 220.374 122.351 213.615 118.401 209.228C114.451 204.84 107.692 204.486 103.305 208.436C98.9175 212.386 98.5628 219.144 102.513 223.532Z" fill="#FF7314"/>
<path d="M113.075 22.2483C117.025 26.6358 123.784 26.9904 128.171 23.0405C132.559 19.0905 132.913 12.3317 128.963 7.94423C125.013 3.55676 118.255 3.20209 113.867 7.15204C109.48 11.102 109.125 17.8608 113.075 22.2483Z" fill="#FF7314"/>
<path d="M132.147 43.433C136.097 47.8205 142.856 48.1752 147.243 44.2252C151.631 40.2753 151.986 33.5164 148.036 29.129C144.086 24.7415 137.327 24.3868 132.939 28.3368C128.552 32.2867 128.197 39.0455 132.147 43.433Z" fill="#FF7314"/>
<path d="M151.219 64.6174C155.169 69.0049 161.928 69.3595 166.315 65.4096C170.703 61.4596 171.058 54.7008 167.108 50.3133C163.158 45.9258 156.399 45.5712 152.011 49.5211C147.624 53.4711 147.269 60.2299 151.219 64.6174Z" fill="#FF7314"/>
<path d="M170.291 85.8021C174.241 90.1895 181 90.5442 185.387 86.5942C189.775 82.6443 190.13 75.8855 186.18 71.498C182.23 67.1105 175.471 66.7559 171.083 70.7058C166.696 74.6558 166.341 81.4146 170.291 85.8021Z" fill="#FF7314"/>
<path d="M189.363 106.987C193.313 111.374 200.072 111.729 204.46 107.779C208.847 103.829 209.202 97.0702 205.252 92.6827C201.302 88.2952 194.543 87.9405 190.156 91.8905C185.768 95.8405 185.413 102.599 189.363 106.987Z" fill="#FF7314"/>
<path d="M208.436 128.171C212.386 132.559 219.144 132.913 223.532 128.963C227.919 125.014 228.274 118.255 224.324 113.867C220.374 109.48 213.615 109.125 209.228 113.075C204.84 117.025 204.486 123.784 208.436 128.171Z" fill="#FF7314"/>
<path d="M70.706 60.3925C74.6559 64.78 81.4147 65.1347 85.8022 61.1847C90.1897 57.2348 90.5444 50.4759 86.5944 46.0885C82.6445 41.701 75.8856 41.3463 71.4982 45.2963C67.1107 49.2462 66.756 56.0051 70.706 60.3925Z" fill="#FF7314"/>
<path d="M89.7781 81.5772C93.7281 85.9647 100.487 86.3194 104.874 82.3694C109.262 78.4195 109.617 71.6606 105.667 67.2732C101.717 62.8857 94.9578 62.531 90.5703 66.481C86.1828 70.4309 85.8282 77.1897 89.7781 81.5772Z" fill="#FF7314"/>
<path d="M108.85 102.762C112.8 107.149 119.559 107.504 123.946 103.554C128.334 99.604 128.689 92.8451 124.739 88.4577C120.789 84.0702 114.03 83.7155 109.642 87.6655C105.255 91.6154 104.9 98.3743 108.85 102.762Z" fill="#FF7314"/>
<path d="M127.922 123.946C131.872 128.334 138.631 128.688 143.019 124.738C147.406 120.788 147.761 114.03 143.811 109.642C139.861 105.255 133.102 104.9 128.714 108.85C124.327 112.8 123.972 119.559 127.922 123.946Z" fill="#FF7314"/>
<path d="M146.994 145.131C150.944 149.518 157.703 149.873 162.091 145.923C166.478 141.973 166.833 135.214 162.883 130.827C158.933 126.439 152.174 126.085 147.786 130.035C143.399 133.985 143.044 140.743 146.994 145.131Z" fill="#FF7314"/>
<path d="M166.067 166.316C170.017 170.703 176.775 171.058 181.163 167.108C185.55 163.158 185.905 156.399 181.955 152.012C178.005 147.624 171.246 147.269 166.859 151.219C162.471 155.169 162.117 161.928 166.067 166.316Z" fill="#FF7314"/>
<path d="M28.3368 98.5367C32.2868 102.924 39.0456 103.279 43.4331 99.3289C47.8206 95.379 48.1752 88.6201 44.2253 84.2327C40.2753 79.8452 33.5165 79.4905 29.129 83.4405C24.7415 87.3904 24.3869 94.1492 28.3368 98.5367Z" fill="#FF7314"/>
<path d="M47.4089 119.721C51.3588 124.109 58.1176 124.463 62.5051 120.513C66.8926 116.563 67.2473 109.805 63.2973 105.417C59.3473 101.03 52.5885 100.675 48.201 104.625C43.8136 108.575 43.4589 115.334 47.4089 119.721Z" fill="#FF7314"/>
<path d="M66.481 140.906C70.4309 145.293 77.1898 145.648 81.5772 141.698C85.9647 137.748 86.3194 130.989 82.3694 126.602C78.4195 122.214 71.6607 121.86 67.2732 125.809C62.8857 129.759 62.531 136.518 66.481 140.906Z" fill="#FF7314"/>
<path d="M85.553 162.09C89.503 166.478 96.2618 166.833 100.649 162.883C105.037 158.933 105.391 152.174 101.441 147.786C97.4915 143.399 90.7327 143.044 86.3452 146.994C81.9577 150.944 81.6031 157.703 85.553 162.09Z" fill="#FF7314"/>
<path d="M104.625 183.276C108.575 187.663 115.334 188.018 119.721 184.068C124.109 180.118 124.464 173.359 120.514 168.972C116.564 164.584 109.805 164.23 105.417 168.18C101.03 172.13 100.675 178.888 104.625 183.276Z" fill="#FF7314"/>
<path d="M123.697 204.46C127.647 208.847 134.406 209.202 138.794 205.252C143.181 201.302 143.536 194.543 139.586 190.156C135.636 185.768 128.877 185.413 124.49 189.363C120.102 193.313 119.747 200.072 123.697 204.46Z" fill="#FF7314"/>
</svg>
